<svg id="Layer_1" data-name="Layer 1" xmlns="http://www.w3.org/2000/svg" viewBox="0 0 200 160"><defs><style>.cls-1{fill:#00ABCD;}</style></defs><title>advertising_1</title><path class="cls-1" d="M156.05,50.46a63.36,63.36,0,1,0-26.51,85.59A63.36,63.36,0,0,0,156.05,50.46ZM135.41,71.33,115.84,85.48l7.51,23a2.5,2.5,0,0,1-3.85,2.79L100,97,80.5,111.22a2.5,2.5,0,0,1-3.85-2.79l7.51-23L64.59,71.33a2.51,2.51,0,0,1,1.48-4.53l24.14.06,7.41-23a2.5,2.5,0,0,1,4.76,0l7.41,23,24.14-.06A2.51,2.51,0,0,1,135.41,71.33Z"/></svg>