<svg id="Layer_1" data-name="Layer 1" xmlns="http://www.w3.org/2000/svg" viewBox="0 0 200 160"><defs><style>.cls-1{fill:#00ABCD;}</style></defs><title>analytics_1</title><path class="cls-1" d="M157.78,24.49H43.3c-8,0-14.49,7.11-14.49,15.89v79.44c0,8.77,6.48,15.89,14.49,15.89H157.78c8,0,14.49-7.12,14.49-15.89V40.38C172.27,31.6,165.78,24.49,157.78,24.49Zm-7.18,86.62a3.84,3.84,0,0,1,0,7.67H50.09a3.84,3.84,0,0,1-3.83-3.84V42.08a3.84,3.84,0,1,1,7.67,0V85.21l38.9-22.3a6.18,6.18,0,0,1,8,1.7l10,13.59,34.95-21.09a6.17,6.17,0,0,1,8.47,2.09,6.19,6.19,0,0,1-2.09,8.48l-39.78,24A6.15,6.15,0,0,1,104.22,90l-10-13.68L53.93,99.44v11.67Z"/></svg>