<svg id="Layer_1" data-name="Layer 1" xmlns="http://www.w3.org/2000/svg" viewBox="0 0 200 160"><defs><style>.cls-1{fill:#00ABCD;}</style></defs><title>streaming_1</title><circle class="cls-1" cx="100.55" cy="80.08" r="9.33"/><path class="cls-1" d="M157.79,24.49H43.31c-8,0-14.49,7.11-14.49,15.89v79.44c0,8.77,6.49,15.89,14.49,15.89H157.79c8,0,14.49-7.12,14.49-15.89V40.38C172.28,31.6,165.79,24.49,157.79,24.49Zm-90,92.1a4.07,4.07,0,0,1-5.73,0,51.64,51.64,0,0,1,0-73,4.14,4.14,0,0,1,5.73,0,4,4,0,0,1,0,5.73,43.54,43.54,0,0,0,0,61.55,4.06,4.06,0,0,1,0,5.74Zm13-17.69a4,4,0,0,1,0,5.73,4,4,0,0,1-2.87,1.19A4,4,0,0,1,75,104.63a34.73,34.73,0,0,1,0-49.11,4.14,4.14,0,0,1,5.73,0,4,4,0,0,1,0,5.73,26.63,26.63,0,0,0,0,37.64Zm19.82-.59a18.24,18.24,0,1,1,18.23-18.23A18.25,18.25,0,0,1,100.55,98.31Zm22.68,7.51a4.05,4.05,0,0,1-2.86-6.92,26.63,26.63,0,0,0,0-37.64,4.06,4.06,0,0,1,0-5.74,4.14,4.14,0,0,1,5.73,0,34.72,34.72,0,0,1,0,49.1A4,4,0,0,1,123.23,105.82Zm15.83,10.77a4.06,4.06,0,0,1-5.74-5.74,43.57,43.57,0,0,0,0-61.55,4.07,4.07,0,0,1,0-5.73,4.16,4.16,0,0,1,5.74,0,51.69,51.69,0,0,1,0,73Z"/></svg>