<svg id="Layer_1" data-name="Layer 1" xmlns="http://www.w3.org/2000/svg" viewBox="0 0 200 160"><defs><style>.cls-1{fill:#00ABCD;}</style></defs><title>videos_1</title><path class="cls-1" d="M123.13,138.5H60.81a10,10,0,0,1-10-10v-83a11.64,11.64,0,0,1,.18-2,.05.05,0,0,0-.05-.07c-5.39,0-9.25,2.83-9.25,8.38v87.7a8.05,8.05,0,0,0,8.05,8H114a11.37,11.37,0,0,0,11.16-9.24s0-.07-.07-.07A10.51,10.51,0,0,1,123.13,138.5Z"/><path class="cls-1" d="M139,122.61H76.71a10,10,0,0,1-10-10v-83a11.66,11.66,0,0,1,.18-2,.05.05,0,0,0,0-.06c-5.39,0-9.26,2.83-9.26,8.38v87.69a8.06,8.06,0,0,0,8.06,8.06H129.9a11.37,11.37,0,0,0,11.16-9.24s0-.08-.07-.07A11.52,11.52,0,0,1,139,122.61Z"/><path class="cls-1" d="M136.9,39.55h20.16L128.9,11.62V31.55A8,8,0,0,0,136.9,39.55Z"/><path class="cls-1" d="M123,35.23V11.63H81.38a8,8,0,0,0-8,8v88.32a8,8,0,0,0,8,8h67.68a8,8,0,0,0,8-8l0-62.71H133A10,10,0,0,1,123,35.23Zm13.62,32.7L106.74,85.19A3.65,3.65,0,0,1,101.27,82V47.53a3.65,3.65,0,0,1,5.47-3.16l29.88,17.25A3.64,3.64,0,0,1,136.62,67.93Z"/></svg>